<svg width="1440" height="45" viewBox="0 0 1440 45" fill="none" xmlns="http://www.w3.org/2000/svg">
<path d="M-1.5 -4.5C94 17.8333 331.7 49.1 518.5 -4.5" stroke="#A6A6A6"/>
<path d="M37.1853 10.2414C36.6185 11.8756 35.7603 13.2092 34.8553 14.0497C33.9321 14.907 33.0687 15.1642 32.4277 14.9418C31.7867 14.7195 31.2679 13.9829 31.0739 12.738C30.8837 11.5177 31.0357 9.93913 31.6025 8.30492C32.1694 6.6707 33.0275 5.33709 33.9325 4.49664C34.8557 3.63931 35.7192 3.38213 36.3602 3.60447C37.0012 3.82682 37.5199 4.5634 37.7139 5.80827C37.9042 7.02862 37.7522 8.60716 37.1853 10.2414Z" fill="#A6A6A6" stroke="#A6A6A6"/>
<path d="M77.9614 16.8232C77.5904 18.5127 76.895 19.9379 76.0949 20.8789C75.2788 21.8388 74.4516 22.1956 73.7889 22.0501C73.1262 21.9046 72.5246 21.2341 72.1856 20.0206C71.8533 18.8311 71.8188 17.2456 72.1897 15.5561C72.5607 13.8666 73.2561 12.4414 74.0562 11.5005C74.8723 10.5406 75.6995 10.1838 76.3622 10.3292C77.0249 10.4747 77.6265 11.1453 77.9655 12.3587C78.2978 13.5483 78.3323 15.1337 77.9614 16.8232Z" fill="#A6A6A6" stroke="#A6A6A6"/>
<path d="M118.224 22.3017C117.992 24.0158 117.414 25.4928 116.693 26.4958C115.958 27.5188 115.163 27.9418 114.49 27.8507C113.818 27.7596 113.164 27.1402 112.727 25.9583C112.299 24.7997 112.136 23.2223 112.368 21.5083C112.601 19.7942 113.178 18.3172 113.899 17.3142C114.634 16.2912 115.429 15.8682 116.102 15.9593C116.774 16.0504 117.428 16.6698 117.865 17.8517C118.293 19.0103 118.456 20.5877 118.224 22.3017Z" fill="#A6A6A6" stroke="#A6A6A6"/>
<path d="M156.224 26.3017C155.992 28.0158 155.414 29.4928 154.693 30.4958C153.958 31.5188 153.163 31.9418 152.49 31.8507C151.818 31.7596 151.164 31.1402 150.727 29.9583C150.299 28.7997 150.136 27.2223 150.368 25.5083C150.601 23.7942 151.178 22.3172 151.899 21.3142C152.634 20.2912 153.429 19.8682 154.102 19.9593C154.774 20.0504 155.428 20.6698 155.865 21.8517C156.293 23.0103 156.456 24.5877 156.224 26.3017Z" fill="#A6A6A6" stroke="#A6A6A6"/>
<path d="M192.224 28.3017C191.992 30.0158 191.414 31.4928 190.693 32.4958C189.958 33.5188 189.163 33.9418 188.49 33.8507C187.818 33.7596 187.164 33.1402 186.727 31.9583C186.299 30.7997 186.136 29.2223 186.368 27.5083C186.601 25.7942 187.178 24.3172 187.899 23.3142C188.634 22.2912 189.429 21.8682 190.102 21.9593C190.774 22.0504 191.428 22.6698 191.865 23.8517C192.293 25.0103 192.456 26.5877 192.224 28.3017Z" fill="#A6A6A6" stroke="#A6A6A6"/>
<path d="M228.224 30.3017C227.992 32.0158 227.414 33.4928 226.693 34.4958C225.958 35.5188 225.163 35.9418 224.49 35.8507C223.818 35.7596 223.164 35.1402 222.727 33.9583C222.299 32.7997 222.136 31.2223 222.368 29.5083C222.601 27.7942 223.178 26.3172 223.899 25.3142C224.634 24.2912 225.429 23.8682 226.102 23.9593C226.774 24.0504 227.428 24.6698 227.865 25.8517C228.293 27.0103 228.456 28.5877 228.224 30.3017Z" fill="#A6A6A6" stroke="#A6A6A6"/>
<path d="M264.248 32.0399C264.168 33.7678 263.725 35.2903 263.096 36.3534C262.454 37.4377 261.7 37.9297 261.022 37.8987C260.344 37.8677 259.638 37.3089 259.098 36.1705C258.568 35.0545 258.266 33.4979 258.345 31.77C258.424 30.042 258.867 28.5195 259.496 27.4565C260.138 26.3722 260.892 25.8802 261.57 25.9112C262.248 25.9422 262.955 26.501 263.494 27.6394C264.024 28.7554 264.327 30.312 264.248 32.0399Z" fill="#A6A6A6" stroke="#A6A6A6"/>
<path d="M303.436 31.5022C303.444 33.2319 303.077 34.7746 302.502 35.8677C301.915 36.9827 301.186 37.5117 300.507 37.5146C299.829 37.5175 299.095 36.9946 298.499 35.8846C297.915 34.7964 297.535 33.2568 297.527 31.5271C297.52 29.7974 297.887 28.2547 298.462 27.1616C299.049 26.0466 299.778 25.5176 300.457 25.5147C301.135 25.5118 301.869 26.0347 302.465 27.1447C303.049 28.2329 303.429 29.7724 303.436 31.5022Z" fill="#A6A6A6" stroke="#A6A6A6"/>
<path d="M339.959 30.5187C340.112 32.2416 339.876 33.8098 339.395 34.9474C338.904 36.1079 338.222 36.6964 337.546 36.7564C336.87 36.8164 336.095 36.3572 335.408 35.3013C334.734 34.2662 334.226 32.7641 334.073 31.0412C333.92 29.3182 334.156 27.75 334.637 26.6124C335.127 25.452 335.809 24.8634 336.485 24.8034C337.161 24.7434 337.936 25.2026 338.623 26.2585C339.297 27.2936 339.806 28.7957 339.959 30.5187Z" fill="#A6A6A6" stroke="#A6A6A6"/>
<path d="M378.893 26.1076C379.287 27.792 379.273 29.3778 378.957 30.5717C378.634 31.7896 378.042 32.4681 377.381 32.6225C376.721 32.7769 375.889 32.4313 375.06 31.4825C374.247 30.5523 373.532 29.1366 373.139 27.4523C372.745 25.7679 372.758 24.1821 373.075 22.9882C373.397 21.7703 373.99 21.0917 374.651 20.9374C375.311 20.783 376.143 21.1286 376.972 22.0774C377.785 23.0076 378.499 24.4233 378.893 26.1076Z" fill="#A6A6A6" stroke="#A6A6A6"/>
<path d="M416.426 21.4899C416.721 23.1941 416.617 24.7765 416.232 25.9502C415.839 27.1474 415.209 27.7906 414.54 27.9065C413.872 28.0225 413.061 27.6293 412.288 26.6342C411.531 25.6587 410.899 24.2041 410.604 22.4998C410.308 20.7955 410.413 19.2132 410.797 18.0395C411.19 16.8423 411.821 16.1991 412.489 16.0831C413.158 15.9672 413.968 16.3603 414.741 17.3554C415.498 18.3309 416.13 19.7856 416.426 21.4899Z" fill="#A6A6A6" stroke="#A6A6A6"/>
<path d="M456.288 15.9759C456.884 17.5996 457.065 19.1751 456.897 20.3987C456.726 21.6469 456.22 22.3927 455.584 22.6267C454.947 22.8606 454.079 22.6192 453.14 21.7788C452.22 20.9549 451.338 19.6371 450.741 18.0134C450.145 16.3898 449.964 14.8143 450.132 13.5907C450.304 12.3425 450.809 11.5966 451.446 11.3626C452.083 11.1287 452.951 11.3701 453.889 12.2106C454.809 13.0344 455.692 14.3523 456.288 15.9759Z" fill="#A6A6A6" stroke="#A6A6A6"/>
<path d="M962 -4C866.5 18.3333 628.8 49.6 442 -4" stroke="#A6A6A6"/>
<path d="M923.315 10.7414C923.882 12.3756 924.74 13.7092 925.645 14.5497C926.568 15.407 927.431 15.6642 928.072 15.4418C928.713 15.2195 929.232 14.4829 929.426 13.238C929.616 12.0177 929.464 10.4391 928.897 8.80492C928.331 7.1707 927.472 5.83709 926.567 4.99664C925.644 4.13931 924.781 3.88213 924.14 4.10447C923.499 4.32682 922.98 5.0634 922.786 6.30827C922.596 7.52862 922.748 9.10716 923.315 10.7414Z" fill="#A6A6A6" stroke="#A6A6A6"/>
<path d="M882.539 17.3232C882.91 19.0127 883.605 20.4379 884.405 21.3789C885.221 22.3388 886.048 22.6956 886.711 22.5501C887.374 22.4046 887.975 21.7341 888.314 20.5206C888.647 19.3311 888.681 17.7456 888.31 16.0561C887.939 14.3666 887.244 12.9414 886.444 12.0005C885.628 11.0406 884.801 10.6838 884.138 10.8292C883.475 10.9747 882.873 11.6453 882.535 12.8587C882.202 14.0483 882.168 15.6337 882.539 17.3232Z" fill="#A6A6A6" stroke="#A6A6A6"/>
<path d="M842.276 22.8017C842.508 24.5158 843.086 25.9928 843.807 26.9958C844.542 28.0188 845.337 28.4418 846.01 28.3507C846.682 28.2596 847.336 27.6402 847.773 26.4583C848.201 25.2997 848.364 23.7223 848.132 22.0083C847.899 20.2942 847.322 18.8172 846.601 17.8142C845.866 16.7912 845.071 16.3682 844.398 16.4593C843.726 16.5504 843.072 17.1698 842.635 18.3517C842.207 19.5103 842.044 21.0877 842.276 22.8017Z" fill="#A6A6A6" stroke="#A6A6A6"/>
<path d="M804.276 26.8017C804.508 28.5158 805.086 29.9928 805.807 30.9958C806.542 32.0188 807.337 32.4418 808.01 32.3507C808.682 32.2596 809.336 31.6402 809.773 30.4583C810.201 29.2997 810.364 27.7223 810.132 26.0083C809.899 24.2942 809.322 22.8172 808.601 21.8142C807.866 20.7912 807.071 20.3682 806.398 20.4593C805.726 20.5504 805.072 21.1698 804.635 22.3517C804.207 23.5103 804.044 25.0877 804.276 26.8017Z" fill="#A6A6A6" stroke="#A6A6A6"/>
<path d="M768.276 28.8017C768.508 30.5158 769.086 31.9928 769.807 32.9958C770.542 34.0188 771.337 34.4418 772.01 34.3507C772.682 34.2596 773.336 33.6402 773.773 32.4583C774.201 31.2997 774.364 29.7223 774.132 28.0083C773.899 26.2942 773.322 24.8172 772.601 23.8142C771.866 22.7912 771.071 22.3682 770.398 22.4593C769.726 22.5504 769.072 23.1698 768.635 24.3517C768.207 25.5103 768.044 27.0877 768.276 28.8017Z" fill="#A6A6A6" stroke="#A6A6A6"/>
<path d="M732.276 30.8017C732.508 32.5158 733.086 33.9928 733.807 34.9958C734.542 36.0188 735.337 36.4418 736.01 36.3507C736.682 36.2596 737.336 35.6402 737.773 34.4583C738.201 33.2997 738.364 31.7223 738.132 30.0083C737.899 28.2942 737.322 26.8172 736.601 25.8142C735.866 24.7912 735.071 24.3682 734.398 24.4593C733.726 24.5504 733.072 25.1698 732.635 26.3517C732.207 27.5103 732.044 29.0877 732.276 30.8017Z" fill="#A6A6A6" stroke="#A6A6A6"/>
<path d="M696.252 32.5399C696.332 34.2678 696.775 35.7903 697.404 36.8534C698.046 37.9377 698.8 38.4297 699.478 38.3987C700.156 38.3677 700.862 37.8089 701.402 36.6705C701.932 35.5545 702.234 33.9979 702.155 32.27C702.076 30.542 701.633 29.0195 701.004 27.9565C700.362 26.8722 699.608 26.3802 698.93 26.4112C698.252 26.4422 697.545 27.001 697.006 28.1394C696.476 29.2554 696.173 30.812 696.252 32.5399Z" fill="#A6A6A6" stroke="#A6A6A6"/>
<path d="M657.064 32.0022C657.056 33.7319 657.423 35.2746 657.998 36.3677C658.585 37.4827 659.314 38.0117 659.993 38.0146C660.671 38.0175 661.405 37.4946 662.001 36.3846C662.585 35.2964 662.965 33.7568 662.973 32.0271C662.98 30.2974 662.613 28.7547 662.038 27.6616C661.451 26.5466 660.722 26.0176 660.043 26.0147C659.365 26.0118 658.631 26.5347 658.035 27.6447C657.451 28.7329 657.071 30.2724 657.064 32.0022Z" fill="#A6A6A6" stroke="#A6A6A6"/>
<path d="M620.541 31.0187C620.388 32.7416 620.624 34.3098 621.105 35.4474C621.596 36.6079 622.278 37.1964 622.954 37.2564C623.63 37.3164 624.405 36.8572 625.092 35.8013C625.766 34.7662 626.274 33.2641 626.427 31.5412C626.58 29.8182 626.344 28.25 625.863 27.1124C625.373 25.952 624.691 25.3634 624.015 25.3034C623.339 25.2434 622.564 25.7026 621.877 26.7585C621.203 27.7936 620.694 29.2957 620.541 31.0187Z" fill="#A6A6A6" stroke="#A6A6A6"/>
<path d="M581.607 26.6076C581.213 28.292 581.227 29.8778 581.543 31.0717C581.866 32.2896 582.458 32.9681 583.119 33.1225C583.779 33.2769 584.611 32.9313 585.44 31.9825C586.253 31.0523 586.968 29.6366 587.361 27.9523C587.755 26.2679 587.742 24.6821 587.425 23.4882C587.103 22.2703 586.51 21.5917 585.849 21.4374C585.189 21.283 584.357 21.6286 583.528 22.5774C582.715 23.5076 582.001 24.9233 581.607 26.6076Z" fill="#A6A6A6" stroke="#A6A6A6"/>
<path d="M544.074 21.9899C543.779 23.6941 543.883 25.2765 544.268 26.4502C544.661 27.6474 545.291 28.2906 545.96 28.4065C546.628 28.5225 547.439 28.1293 548.212 27.1342C548.969 26.1587 549.601 24.7041 549.896 22.9998C550.192 21.2955 550.087 19.7132 549.703 18.5395C549.31 17.3423 548.679 16.6991 548.011 16.5831C547.342 16.4672 546.532 16.8603 545.759 17.8554C545.002 18.8309 544.37 20.2856 544.074 21.9899Z" fill="#A6A6A6" stroke="#A6A6A6"/>
<path d="M504.212 16.4759C503.616 18.0996 503.435 19.6751 503.603 20.8987C503.774 22.1469 504.28 22.8927 504.916 23.1267C505.553 23.3606 506.421 23.1192 507.36 22.2788C508.28 21.4549 509.162 20.1371 509.759 18.5134C510.355 16.8898 510.536 15.3143 510.368 14.0907C510.196 12.8425 509.691 12.0966 509.054 11.8626C508.417 11.6287 507.549 11.8701 506.611 12.7106C505.691 13.5344 504.808 14.8523 504.212 16.4759Z" fill="#A6A6A6" stroke="#A6A6A6"/>
<path d="M1450 -4C1350.83 21.4165 1103.98 56.9996 910 -4" stroke="#A6A6A6"/>
<path d="M1409.8 12.7851C1410.4 14.6578 1411.29 16.1894 1412.25 17.1567C1413.22 18.1485 1414.13 18.4378 1414.79 18.1866C1415.45 17.9354 1416 17.0933 1416.2 15.6532C1416.4 14.2485 1416.24 12.4364 1415.65 10.5637C1415.05 8.69106 1414.16 7.15951 1413.21 6.19215C1412.23 5.20032 1411.33 4.91106 1410.66 5.16228C1410 5.4135 1409.46 6.25553 1409.25 7.69569C1409.05 9.10032 1409.21 10.9125 1409.8 12.7851Z" fill="#A6A6A6" stroke="#A6A6A6"/>
<path d="M1367.46 20.2719C1367.85 22.209 1368.58 23.8467 1369.42 24.9305C1370.28 26.0431 1371.15 26.4441 1371.83 26.2808C1372.51 26.1176 1373.14 25.3549 1373.5 23.9484C1373.85 22.5782 1373.89 20.7568 1373.5 18.8198C1373.11 16.8827 1372.38 15.245 1371.54 14.1612C1370.68 13.0486 1369.81 12.6476 1369.13 12.8108C1368.45 12.9741 1367.82 13.7368 1367.46 15.1433C1367.11 16.5135 1367.07 18.3349 1367.46 20.2719Z" fill="#A6A6A6" stroke="#A6A6A6"/>
<path d="M1325.65 26.5046C1325.89 28.4703 1326.5 30.168 1327.26 31.3236C1328.04 32.5105 1328.87 32.9862 1329.56 32.8843C1330.24 32.7824 1330.93 32.0802 1331.39 30.7091C1331.84 29.3741 1332.02 27.5614 1331.77 25.5957C1331.53 23.63 1330.92 21.9323 1330.17 20.7767C1329.39 19.5898 1328.55 19.1141 1327.87 19.216C1327.18 19.3179 1326.49 20.0201 1326.03 21.3912C1325.58 22.7261 1325.41 24.5389 1325.65 26.5046Z" fill="#A6A6A6" stroke="#A6A6A6"/>
<path d="M1286.19 31.0569C1286.43 33.0226 1287.04 34.7202 1287.8 35.8759C1288.57 37.0627 1289.41 37.5384 1290.1 37.4365C1290.78 37.3346 1291.47 36.6324 1291.93 35.2614C1292.38 33.9264 1292.55 32.1137 1292.31 30.1479C1292.07 28.1822 1291.46 26.4845 1290.71 25.3289C1289.93 24.1421 1289.09 23.6664 1288.41 23.7683C1287.72 23.8702 1287.03 24.5723 1286.57 25.9434C1286.12 27.2784 1285.95 29.0911 1286.19 31.0569Z" fill="#A6A6A6" stroke="#A6A6A6"/>
<path d="M1248.81 33.333C1249.05 35.2987 1249.65 36.9964 1250.41 38.152C1251.19 39.3388 1252.02 39.8146 1252.71 39.7126C1253.4 39.6107 1254.09 38.9086 1254.55 37.5375C1255 36.2025 1255.17 34.3898 1254.93 32.4241C1254.68 30.4583 1254.08 28.7607 1253.32 27.605C1252.54 26.4182 1251.71 25.9425 1251.02 26.0444C1250.33 26.1463 1249.64 26.8485 1249.18 28.2195C1248.73 29.5545 1248.56 31.3673 1248.81 33.333Z" fill="#A6A6A6" stroke="#A6A6A6"/>
<path d="M1211.42 35.6091C1211.66 37.5748 1212.27 39.2725 1213.03 40.4281C1213.8 41.615 1214.64 42.0907 1215.33 41.9888C1216.01 41.8868 1216.7 41.1847 1217.16 39.8136C1217.61 38.4786 1217.78 36.6659 1217.54 34.7002C1217.3 32.7344 1216.69 31.0368 1215.94 29.8812C1215.16 28.6943 1214.32 28.2186 1213.64 28.3205C1212.95 28.4224 1212.26 29.1246 1211.8 30.4957C1211.35 31.8306 1211.18 33.6434 1211.42 35.6091Z" fill="#A6A6A6" stroke="#A6A6A6"/>
<path d="M1174.01 37.5854C1174.09 39.5673 1174.56 41.3174 1175.22 42.5425C1175.9 43.8011 1176.69 44.3555 1177.38 44.3208C1178.07 44.2862 1178.82 43.6548 1179.39 42.3335C1179.95 41.0474 1180.26 39.2581 1180.18 37.2762C1180.1 35.2943 1179.63 33.5442 1178.97 32.3191C1178.29 31.0605 1177.5 30.5061 1176.81 30.5407C1176.12 30.5754 1175.37 31.2068 1174.8 32.5281C1174.25 33.8142 1173.93 35.6035 1174.01 37.5854Z" fill="#A6A6A6" stroke="#A6A6A6"/>
<path d="M1133.32 36.9721C1133.31 38.9561 1133.69 40.7294 1134.3 41.9892C1134.92 43.2835 1135.69 43.8805 1136.38 43.8836C1137.07 43.8868 1137.84 43.297 1138.47 42.0085C1139.09 40.7544 1139.48 38.9847 1139.49 37.0007C1139.5 35.0167 1139.11 33.2433 1138.51 31.9836C1137.89 30.6893 1137.12 30.0923 1136.43 30.0891C1135.74 30.0859 1134.97 30.6758 1134.34 31.9642C1133.72 33.2183 1133.32 34.9881 1133.32 36.9721Z" fill="#A6A6A6" stroke="#A6A6A6"/>
<path d="M1095.39 35.8512C1095.23 37.8273 1095.48 39.6296 1095.98 40.9406C1096.5 42.2873 1097.22 42.9533 1097.91 43.0204C1098.6 43.0874 1099.41 42.5705 1100.14 41.3451C1100.85 40.1523 1101.38 38.4257 1101.54 36.4496C1101.7 34.4735 1101.45 32.6711 1100.95 31.3601C1100.43 30.0135 1099.71 29.3474 1099.02 29.2804C1098.33 29.2133 1097.52 29.7303 1096.79 30.9556C1096.08 32.1485 1095.55 33.8751 1095.39 35.8512Z" fill="#A6A6A6" stroke="#A6A6A6"/>
<path d="M1054.96 30.8276C1054.54 32.7587 1054.56 34.5803 1054.89 35.9555C1055.23 37.3669 1055.86 38.1391 1056.53 38.3125C1057.21 38.4858 1058.08 38.0974 1058.96 36.9978C1059.81 35.9265 1060.56 34.2999 1060.97 32.3688C1061.39 30.4377 1061.37 28.6161 1061.04 27.2409C1060.7 25.8295 1060.07 25.0573 1059.4 24.8839C1058.72 24.7106 1057.85 25.099 1056.97 26.1986C1056.12 27.2699 1055.37 28.8965 1054.96 30.8276Z" fill="#A6A6A6" stroke="#A6A6A6"/>
<path d="M1015.98 25.5739C1015.67 27.5282 1015.78 29.3464 1016.18 30.6985C1016.6 32.0869 1017.26 32.8172 1017.95 32.9471C1018.63 33.077 1019.48 32.635 1020.3 31.4809C1021.1 30.3571 1021.76 28.6853 1022.07 26.731C1022.38 24.7767 1022.27 22.9585 1021.86 21.6063C1021.45 20.2179 1020.78 19.4877 1020.1 19.3578C1019.42 19.2279 1018.56 19.6699 1017.75 20.8239C1016.95 21.9478 1016.29 23.6196 1015.98 25.5739Z" fill="#A6A6A6" stroke="#A6A6A6"/>
<path d="M974.581 19.2932C973.958 21.1536 973.768 22.962 973.944 24.3702C974.125 25.8137 974.659 26.667 975.316 26.9317C975.974 27.1963 976.885 26.9246 977.875 25.9527C978.841 25.0046 979.765 23.4913 980.388 21.631C981.012 19.7706 981.202 17.9622 981.026 16.554C980.845 15.1105 980.311 14.2571 979.653 13.9925C978.996 13.7278 978.085 13.9995 977.094 14.9714C976.128 15.9196 975.205 17.4328 974.581 19.2932Z" fill="#A6A6A6" stroke="#A6A6A6"/>
</svg>
