<svg width="647" height="300" viewBox="0 0 647 300" fill="none" xmlns="http://www.w3.org/2000/svg">
<path fill-rule="evenodd" clip-rule="evenodd" d="M44.6793 60.085C62.7991 29.1376 83.8478 -2.14372 102.572 -29L107.494 -25.5685C88.8016 1.24192 67.858 32.3723 49.8571 63.1166C31.8303 93.9053 16.8696 124.116 10.0117 149.119C6.58197 161.624 5.24077 172.612 6.41849 181.616C7.5852 190.536 11.198 197.404 17.6768 202.06C24.2448 206.779 34.1504 209.509 48.4287 209.25C62.6885 208.99 81.0325 205.752 104.175 198.841C148.137 185.713 185.15 174.344 217.011 164.558C343.859 125.596 389.048 111.716 466.033 111.716C488.473 111.716 515.551 117.769 541.745 128.462C567.949 139.159 593.483 154.586 612.76 173.513C632.027 192.43 645.25 215.06 646.265 240.102C647.283 265.218 635.996 292.094 607.612 319.379L603.454 315.053C630.986 288.588 641.199 263.276 640.27 240.345C639.337 217.34 627.165 196.064 608.556 177.794C589.958 159.533 565.138 144.492 539.477 134.017C513.807 123.538 487.509 117.716 466.033 117.716C390.013 117.716 345.821 131.286 219.176 170.177C187.26 179.977 150.108 191.386 105.891 204.59C82.4656 211.586 63.545 214.976 48.5378 215.249C33.5492 215.521 22.1853 212.688 14.1755 206.932C6.07644 201.112 1.80301 192.592 0.469166 182.394C-0.853667 172.28 0.69028 160.421 4.22543 147.532C11.2974 121.749 26.5856 90.9879 44.6793 60.085Z" fill="white"/>
<path d="M600 154C600 162.284 593.284 169 585 169C576.716 169 570 162.284 570 154C570 145.716 576.716 139 585 139C593.284 139 600 145.716 600 154Z" fill="#002ADB"/>
<path d="M634 186C634 194.284 627.284 201 619 201C610.716 201 604 194.284 604 186C604 177.716 610.716 171 619 171C627.284 171 634 177.716 634 186Z" fill="#FFA8D4"/>
<path d="M48.8672 77.7158C48.8672 86.0001 42.1515 92.7158 33.8672 92.7158C25.5829 92.7158 18.8672 86.0001 18.8672 77.7158C18.8672 69.4315 25.5829 62.7158 33.8672 62.7158C42.1515 62.7158 48.8672 69.4315 48.8672 77.7158Z" fill="#FFD700"/>
</svg>
