<svg width="15" height="15" viewBox="0 0 15 15" fill="none" xmlns="http://www.w3.org/2000/svg">
<path d="M6.01923 15C5.46695 15 5.01923 14.5523 5.01923 14V11.0096C5.01923 10.4573 4.57152 10.0096 4.01923 10.0096H1C0.447716 10.0096 0 9.5619 0 9.00961V6.01923C0 5.46695 0.447715 5.01923 1 5.01923H3.99039C4.54267 5.01923 4.99039 4.57152 4.99039 4.01923V1C4.99039 0.447716 5.4381 0 5.99039 0H8.98077C9.53305 0 9.98077 0.447715 9.98077 1V4.01923C9.98077 4.57151 10.4285 5.01923 10.9808 5.01923H14C14.5523 5.01923 15 5.46695 15 6.01923V9.00961C15 9.5619 14.5523 10.0096 14 10.0096H11.0096C10.4573 10.0096 10.0096 10.4573 10.0096 11.0096V14C10.0096 14.5523 9.5619 15 9.00961 15H6.01923Z" fill="#002ADB"/>
</svg>
