<svg width="41" height="41" viewBox="0 0 41 41" fill="none" xmlns="http://www.w3.org/2000/svg">
<rect x="1" y="1" width="39" height="39" rx="4" stroke="white" stroke-width="2"/>
<path fill-rule="evenodd" clip-rule="evenodd" d="M9 13.6C9 11.0595 11.0595 9 13.6 9H27.4C29.9405 9 32 11.0595 32 13.6V27.4C32 29.9405 29.9405 32 27.4 32H13.6C11.0595 32 9 29.9405 9 27.4V13.6ZM13.6 11.3C12.3297 11.3 11.3 12.3297 11.3 13.6V27.4C11.3 28.6703 12.3297 29.7 13.6 29.7H27.4C28.6703 29.7 29.7 28.6703 29.7 27.4V13.6C29.7 12.3297 28.6703 11.3 27.4 11.3H13.6ZM20.5 17.05C18.5946 17.05 17.05 18.5946 17.05 20.5C17.05 22.4054 18.5946 23.95 20.5 23.95C22.4054 23.95 23.95 22.4054 23.95 20.5C23.95 18.5946 22.4054 17.05 20.5 17.05ZM14.75 20.5C14.75 17.3244 17.3244 14.75 20.5 14.75C23.6756 14.75 26.25 17.3244 26.25 20.5C26.25 23.6756 23.6756 26.25 20.5 26.25C17.3244 26.25 14.75 23.6756 14.75 20.5ZM26.825 15.9C27.7777 15.9 28.55 15.1277 28.55 14.175C28.55 13.2223 27.7777 12.45 26.825 12.45C25.8723 12.45 25.1 13.2223 25.1 14.175C25.1 15.1277 25.8723 15.9 26.825 15.9Z" fill="white"/>
</svg>
