<svg width="41" height="41" viewBox="0 0 41 41" fill="none" xmlns="http://www.w3.org/2000/svg">
<rect x="1" y="1" width="39" height="39" rx="4" stroke="white" stroke-width="2"/>
<path fill-rule="evenodd" clip-rule="evenodd" d="M15.3267 28.2177V15.9257H11.2415V28.2177H15.3267V28.2177ZM13.2845 14.248C14.7087 14.248 15.5958 13.3033 15.5958 12.1238C15.5689 10.918 14.7087 10 13.3112 10C11.9136 10 11 10.918 11 12.1238C11 13.3034 11.8866 14.248 13.2576 14.248L13.2845 14.248ZM17.5877 28.2177C17.5877 28.2177 17.6413 17.079 17.5877 15.9257H21.6735V17.7083H21.6464C22.1836 16.8695 23.1515 15.637 25.3553 15.637C28.0439 15.637 30.0591 17.3939 30.0591 21.1695V28.2177H25.974V21.6418C25.974 19.9895 25.3829 18.862 23.9041 18.862C22.7757 18.862 22.1032 19.6221 21.8079 20.3569C21.6998 20.6184 21.6735 20.9858 21.6735 21.3532V28.2177H17.5877Z" fill="white" stroke="white" stroke-width="0.008"/>
</svg>
