<svg width="41" height="41" viewBox="0 0 41 41" fill="none" xmlns="http://www.w3.org/2000/svg">
<rect x="1" y="1" width="39" height="39" rx="4" stroke="white" stroke-width="2"/>
<path fill-rule="evenodd" clip-rule="evenodd" d="M32 23.4837C31.8965 26.1335 29.6683 28.1997 27.0182 28.1032H13.9818C11.3318 28.1997 9.10348 26.1335 9 23.4837V16.6228C9.10348 13.973 11.3318 11.9068 13.9818 12.0032H27.0182C29.6683 11.9068 31.8965 13.973 32 16.6228V23.4837ZM24.4708 19.4844L19.4129 16.2627C18.4545 15.6523 17 16.1742 17 17.1237V23.8731C17 24.8271 18.4529 25.3475 19.4129 24.7371L24.4708 21.2123C24.7985 21.0331 25 20.7042 25 20.3484C25 19.9928 24.7985 19.6638 24.4708 19.4844Z" fill="white"/>
<path d="M27.0182 28.1032L27.0546 27.1039C27.0425 27.1034 27.0303 27.1032 27.0182 27.1032V28.1032ZM32 23.4837L32.9992 23.5227C32.9997 23.5097 33 23.4967 33 23.4837H32ZM13.9818 28.1032V27.1032C13.9697 27.1032 13.9575 27.1034 13.9454 27.1039L13.9818 28.1032ZM9 23.4837H8C8 23.4967 8.00025 23.5097 8.00076 23.5227L9 23.4837ZM9 16.6228L8.00076 16.5838C8.00025 16.5968 8 16.6098 8 16.6228H9ZM13.9818 12.0032L13.9454 13.0026C13.9575 13.003 13.9697 13.0032 13.9818 13.0032V12.0032ZM27.0182 12.0032V13.0032C27.0303 13.0032 27.0425 13.003 27.0546 13.0026L27.0182 12.0032ZM32 16.6228H33C33 16.6098 32.9997 16.5968 32.9992 16.5838L32 16.6228ZM19.4129 16.2627L19.9502 15.4193L19.9502 15.4193L19.4129 16.2627ZM24.4708 19.4844L23.9336 20.3279C23.9523 20.3397 23.9713 20.351 23.9907 20.3616L24.4708 19.4844ZM19.4129 24.7371L19.9495 25.5809C19.9614 25.5734 19.9731 25.5656 19.9847 25.5575L19.4129 24.7371ZM24.4708 21.2123L23.991 20.335C23.9594 20.3523 23.9287 20.3713 23.8991 20.3919L24.4708 21.2123ZM26.9818 29.1026C30.1828 29.2191 32.8742 26.7234 32.9992 23.5227L31.0008 23.4446C30.9188 25.5436 29.1537 27.1803 27.0546 27.1039L26.9818 29.1026ZM13.9818 29.1032H27.0182V27.1032H13.9818V29.1032ZM8.00076 23.5227C8.12575 26.7234 10.8173 29.2191 14.0182 29.1026L13.9454 27.1039C11.8463 27.1803 10.0812 25.5436 9.99924 23.4447L8.00076 23.5227ZM8 16.6228V23.4837H10V16.6228H8ZM14.0182 11.0039C10.8173 10.8874 8.12575 13.3832 8.00076 16.5838L9.99924 16.6618C10.0812 14.5629 11.8463 12.9262 13.9454 13.0026L14.0182 11.0039ZM27.0182 11.0032H13.9818V13.0032H27.0182V11.0032ZM32.9992 16.5838C32.8742 13.3832 30.1828 10.8874 26.9818 11.0039L27.0546 13.0026C29.1537 12.9262 30.9188 14.5629 31.0008 16.6618L32.9992 16.5838ZM33 23.4837V16.6228H31V23.4837H33ZM18.8757 17.1061L23.9336 20.3279L25.0081 18.641L19.9502 15.4193L18.8757 17.1061ZM18 17.1237C18 17.23 17.9247 17.1425 18.1838 17.0498C18.4205 16.9652 18.6941 16.9905 18.8757 17.1062L19.9502 15.4193C19.1733 14.9245 18.2405 14.9055 17.5104 15.1666C16.8025 15.4197 16 16.0679 16 17.1237H18ZM18 23.8731V17.1237H16V23.8731H18ZM18.8764 23.8932C18.693 24.0098 18.419 24.0346 18.1836 23.9503C17.9274 23.8585 18 23.7715 18 23.8731H16C16 24.9287 16.7991 25.5789 17.5093 25.8332C18.2404 26.095 19.1728 26.0748 19.9495 25.5809L18.8764 23.8932ZM23.8991 20.3919L18.8412 23.9167L19.9847 25.5575L25.0426 22.0328L23.8991 20.3919ZM24 20.3484C24 20.3426 24.0009 20.3371 24.0022 20.3325C24.0035 20.328 24.0049 20.3253 24.0055 20.3243C24.0069 20.3221 24.0042 20.3278 23.991 20.335L24.9507 22.0897C25.5793 21.7459 26 21.0917 26 20.3484H24ZM23.9907 20.3616C24.0041 20.3689 24.0068 20.3747 24.0055 20.3726C24.005 20.3716 24.0035 20.369 24.0022 20.3644C24.0009 20.3598 24 20.3542 24 20.3484H26C26 19.605 25.5792 18.9511 24.951 18.6073L23.9907 20.3616Z" fill="white"/>
</svg>
