<svg width="29" height="24" viewBox="0 0 29 24" fill="none" xmlns="http://www.w3.org/2000/svg">
<path d="M25.173 2.237C22.9514 0.138082 21.7051 1.61582 18.6724 1.23671C10.6714 0.236518 2.6733 -0.263361 1.17151 3.23702C0.0692139 5.80627 0.16185 7.00928 2.6733 8.23758C4.07655 8.92389 4.67151 7.23702 6.6733 8.23758C8.47152 9.1364 9.16306 11.6497 11.1715 11.737C13.3525 11.8318 13.1715 8.73702 16.1715 8.73702C18.5227 8.73702 19.3625 10.2838 20.6715 12.237C22.771 15.3697 20.1733 20.737 23.6715 22.237C25.8621 23.1763 26.172 21.7366 26.6728 18.7366C28.1862 9.66927 30.3004 7.08113 25.173 2.237Z" fill="white"/>
<path fill-rule="evenodd" clip-rule="evenodd" d="M3.23048 0.842135C2.07129 1.30084 1.15814 2.00002 0.712019 3.03984C0.162844 4.31987 -0.162924 5.40777 0.0829926 6.36458C0.339066 7.36091 1.16396 8.05595 2.45362 8.6867C3.29364 9.09754 3.96133 8.84139 4.46885 8.64669C4.52133 8.62656 4.57209 8.60708 4.62116 8.58907C4.89364 8.48904 5.1363 8.41698 5.41048 8.41186C5.67891 8.40684 6.01201 8.46599 6.44975 8.68479C7.1104 9.015 7.59684 9.59177 8.14783 10.2451C8.2508 10.3672 8.35603 10.4919 8.46507 10.6183C9.11536 11.3717 9.9146 12.1828 11.1498 12.2365C12.4311 12.2922 13.0927 11.4384 13.6205 10.7572C13.6668 10.6974 13.712 10.639 13.7566 10.5826C14.0539 10.2067 14.3389 9.87822 14.706 9.63684C15.061 9.4034 15.5162 9.23698 16.1715 9.23698C17.2129 9.23698 17.8894 9.57026 18.4689 10.1179C18.9936 10.6139 19.4321 11.2747 19.9691 12.0841C20.0615 12.2235 20.1569 12.3673 20.2561 12.5153C20.7176 13.2039 20.9349 14.0362 21.037 14.9648C21.1128 15.6535 21.1227 16.3567 21.1328 17.0735C21.1365 17.3346 21.1402 17.5976 21.1471 17.8623C21.1723 18.8249 21.2408 19.8078 21.553 20.6551C21.8754 21.5298 22.4577 22.2606 23.4744 22.6965C24.0564 22.946 24.5875 23.072 25.0656 23.0031C25.5757 22.9295 25.9507 22.6459 26.2212 22.2424C26.4779 21.8594 26.6486 21.3585 26.7861 20.8009C26.9251 20.2372 27.0412 19.566 27.1659 18.8189C27.4715 16.9881 27.8012 15.4255 28.0924 14.0454C28.1598 13.7262 28.2251 13.4168 28.2875 13.1161C28.6179 11.5255 28.873 10.161 28.913 8.91915C28.9534 7.66363 28.7749 6.5216 28.2361 5.37143C27.701 4.22916 26.8246 3.10947 25.5164 1.8735C24.9221 1.31203 24.3677 0.966153 23.8079 0.775256C23.2475 0.584166 22.7173 0.560709 22.1961 0.592835C21.8784 0.612414 21.573 0.649369 21.2625 0.686936C20.5255 0.776116 19.76 0.868742 18.7344 0.740528C14.7332 0.240343 10.693 -0.140538 7.45538 0.0499741C5.83734 0.145185 4.38693 0.384516 3.23048 0.842135ZM7.51412 1.04825C10.6512 0.86365 14.6106 1.2328 18.6103 1.73281C19.7663 1.87731 20.7241 1.76201 21.494 1.66934C21.7731 1.63575 22.0275 1.60513 22.2576 1.59094C22.7047 1.56339 23.0922 1.58773 23.4851 1.72173C23.8786 1.85593 24.3131 2.11242 24.8297 2.60041C26.0851 3.78651 26.8673 4.80689 27.3305 5.79567C27.7901 6.77654 27.9499 7.75652 27.9135 8.88697C27.8767 10.0311 27.6399 11.3166 27.3084 12.9128C27.2469 13.2089 27.1823 13.5151 27.1154 13.8322C26.8239 15.2133 26.489 16.8004 26.1796 18.6542C26.0539 19.4071 25.9435 20.0409 25.8152 20.5615C25.6852 21.0883 25.5477 21.4511 25.3905 21.6856C25.2471 21.8996 25.1025 21.9874 24.9228 22.0133C24.711 22.0439 24.3819 21.9976 23.8685 21.7774C23.1361 21.4634 22.7314 20.9607 22.4913 20.3093C22.2412 19.6305 22.1719 18.7945 22.1468 17.8361C22.1406 17.5983 22.1371 17.3522 22.1336 17.101C22.1233 16.3701 22.1124 15.5957 22.031 14.8555C21.9204 13.8497 21.6751 12.8364 21.0868 11.9586C20.9949 11.8214 20.9041 11.6843 20.8139 11.5481C20.2827 10.7456 19.7711 9.97276 19.1558 9.39115C18.4003 8.67711 17.4813 8.23698 16.1715 8.23698C15.3268 8.23698 14.6796 8.45742 14.1566 8.8013C13.6457 9.13723 13.2772 9.57658 12.9722 9.96243C12.94 10.0031 12.9086 10.043 12.8778 10.082C12.2855 10.8337 11.9417 11.27 11.1932 11.2375C10.42 11.2038 9.86922 10.7146 9.22208 9.96487C9.13189 9.86038 9.03944 9.74997 8.94406 9.63605C8.39972 8.98594 7.75976 8.22161 6.89685 7.7903C6.3337 7.50882 5.84176 7.40362 5.39178 7.41203C4.94755 7.42034 4.57843 7.5395 4.27654 7.65033C4.22543 7.66909 4.17661 7.68727 4.1298 7.7047C3.60397 7.90047 3.3304 8.00232 2.89297 7.78839C1.67119 7.19083 1.19405 6.67022 1.05152 6.11565C0.898827 5.52157 1.07789 4.72334 1.63101 3.43412C1.93578 2.72376 2.58557 2.17278 3.59843 1.77198C4.61403 1.3701 5.9448 1.14059 7.51412 1.04825Z" fill="white"/>
</svg>
