<svg width="30" height="24" viewBox="0 0 30 24" fill="none" xmlns="http://www.w3.org/2000/svg">
<path d="M25.6725 2.737C23.4509 0.638082 22.2046 2.11582 19.1719 1.73671C11.1709 0.736518 3.17281 0.236639 1.67102 3.73702C0.568726 6.30627 0.661362 7.50928 3.17281 8.73758C4.57606 9.42389 5.17102 7.73702 7.17281 8.73758C8.97104 9.6364 9.66257 12.1497 11.671 12.237C13.8521 12.3318 13.671 9.23702 16.671 9.23702C19.0223 9.23702 19.862 10.7838 21.171 12.737C23.2705 15.8697 20.6728 21.237 24.171 22.737C26.3616 23.6763 26.6715 22.2366 27.1723 19.2366C28.6857 10.1693 30.7999 7.58113 25.6725 2.737Z" fill="white" stroke="white"/>
</svg>
