<svg width="41" height="41" viewBox="0 0 41 41" fill="none" xmlns="http://www.w3.org/2000/svg">
<path fill-rule="evenodd" clip-rule="evenodd" d="M19.4162 10L19.4791 12.5159L17.1932 10.7207L16.1818 12.008L19.5322 14.6405L19.652 19.4326L15.5617 16.9328L14.9572 12.715L13.3365 12.9473L13.7494 15.8251L11.601 14.5121L10.5095 16.4026L12.7198 17.606L10.0222 18.688L10.6313 20.2077L14.5863 18.6223L18.7964 20.9147L14.7946 23.0936L10.5264 21.6432L9.99965 23.1934L12.8394 24.1582L10.5095 25.4268L11.601 27.3172L13.8645 25.9339L13.2802 28.8755L14.8861 29.1944L15.7641 24.7729L19.652 22.3967L19.5381 26.9518L16.148 29.9229L17.227 31.1542L19.4825 29.1773L19.4162 31.8293H21.5991L21.5328 29.1773L23.7882 31.1542L24.8673 29.9229L21.4772 26.9518L21.3633 22.3967L25.2512 24.7729L26.1292 29.1944L27.735 28.8755L27.1507 25.9338L29.4143 27.3172L30.5058 25.4268L28.1759 24.1582L31.0156 23.1934L30.4889 21.6432L26.2207 23.0936L22.219 20.9147L26.429 18.6223L30.384 20.2077L30.9931 18.688L28.2944 17.6067L30.5058 16.4026L29.4143 14.5121L27.2669 15.8245L27.6787 12.9473L26.0581 12.715L25.4535 16.9328L21.3633 19.4326L21.4831 14.6404L24.8335 12.008L23.822 10.7207L21.5362 12.5171L21.5991 10H19.4162Z" fill="#0A1E4C"/>
<rect x="0.5" y="0.5" width="40" height="40" rx="4.5" stroke="#0A1E4C"/>
</svg>
