<svg width="41" height="41" viewBox="0 0 41 41" fill="none" xmlns="http://www.w3.org/2000/svg">
<rect x="0.5" y="0.5" width="40" height="40" rx="4.5" stroke="#0A1E4C"/>
<path fill-rule="evenodd" clip-rule="evenodd" d="M32 23.4837C31.8965 26.1335 29.6683 28.1997 27.0182 28.1032H13.9818C11.3318 28.1997 9.10348 26.1335 9 23.4837V16.6228C9.10348 13.973 11.3318 11.9068 13.9818 12.0032H27.0182C29.6683 11.9068 31.8965 13.973 32 16.6228V23.4837ZM23.6842 19.7102L19.8907 17.2044C19.1719 16.7296 18.081 17.1356 18.081 17.874V23.1236C18.081 23.8656 19.1707 24.2704 19.8907 23.7956L23.6842 21.0541C23.9299 20.9147 24.081 20.6588 24.081 20.3821C24.081 20.1055 23.9299 19.8497 23.6842 19.7102Z" fill="#0A1E4C"/>
</svg>
