<svg width="607" height="297" viewBox="0 0 607 297" fill="none" xmlns="http://www.w3.org/2000/svg">
<path fill-rule="evenodd" clip-rule="evenodd" d="M530.047 176.144C490.03 188.958 431.855 196.716 349.96 196.716C181.892 196.716 91.0103 218.239 45.5854 246.148C22.9654 260.045 11.8376 275.388 7.82339 290.264C3.80113 305.169 6.7885 320.096 13.3538 333.388L7.97421 336.045C0.956128 321.837 -2.47266 305.389 2.03059 288.701C6.54187 271.983 18.8813 255.513 42.4445 241.035C89.3862 212.194 181.736 190.716 349.96 190.716C431.565 190.716 489.04 182.975 528.217 170.43C567.424 157.875 587.857 140.665 596.199 122.052C604.528 103.47 601.182 82.6396 590.869 61.9534C580.562 41.2776 563.478 21.1581 545.143 4.43285L549.186 0C567.85 17.0248 585.491 37.7177 596.239 59.2764C606.982 80.8245 611.022 103.65 601.674 124.506C592.341 145.33 570.035 163.339 530.047 176.144Z" fill="#133556"/>
<path d="M37.96 258.216C37.96 266.501 31.2442 273.216 22.96 273.216C14.6757 273.216 7.95996 266.501 7.95996 258.216C7.95996 249.932 14.6757 243.216 22.96 243.216C31.2442 243.216 37.96 249.932 37.96 258.216Z" fill="#FF69B4"/>
<path d="M65.96 238.216C65.96 246.501 59.2442 253.216 50.96 253.216C42.6757 253.216 35.96 246.501 35.96 238.216C35.96 229.932 42.6757 223.216 50.96 223.216C59.2442 223.216 65.96 229.932 65.96 238.216Z" fill="#1D568D"/>
<path d="M96.96 223.216C96.96 231.501 90.2442 238.216 81.96 238.216C73.6757 238.216 66.96 231.501 66.96 223.216C66.96 214.932 73.6757 208.216 81.96 208.216C90.2442 208.216 96.96 214.932 96.96 223.216Z" fill="#FF853F"/>
</svg>
