<svg width="23" height="23" viewBox="0 0 23 23" fill="none" xmlns="http://www.w3.org/2000/svg">
<path fill-rule="evenodd" clip-rule="evenodd" d="M0 4.6C0 2.05949 2.05949 0 4.6 0H18.4C20.9405 0 23 2.05949 23 4.6V18.4C23 20.9405 20.9405 23 18.4 23H4.6C2.05949 23 0 20.9405 0 18.4V4.6ZM4.6 2.3C3.32974 2.3 2.3 3.32974 2.3 4.6V18.4C2.3 19.6703 3.32974 20.7 4.6 20.7H18.4C19.6703 20.7 20.7 19.6703 20.7 18.4V4.6C20.7 3.32974 19.6703 2.3 18.4 2.3H4.6ZM11.5 8.05C9.59456 8.05 8.05 9.59456 8.05 11.5C8.05 13.4054 9.59456 14.95 11.5 14.95C13.4054 14.95 14.95 13.4054 14.95 11.5C14.95 9.59456 13.4054 8.05 11.5 8.05ZM5.75 11.5C5.75 8.32437 8.32437 5.75 11.5 5.75C14.6756 5.75 17.25 8.32437 17.25 11.5C17.25 14.6756 14.6756 17.25 11.5 17.25C8.32437 17.25 5.75 14.6756 5.75 11.5ZM17.825 6.9C18.7777 6.9 19.55 6.12769 19.55 5.175C19.55 4.22231 18.7777 3.45 17.825 3.45C16.8723 3.45 16.1 4.22231 16.1 5.175C16.1 6.12769 16.8723 6.9 17.825 6.9Z" fill="#0A1E4C"/>
</svg>
