<svg width="20" height="19" viewBox="0 0 20 19" fill="none" xmlns="http://www.w3.org/2000/svg">
<path fill-rule="evenodd" clip-rule="evenodd" d="M4.32669 18.2177V5.92565H0.241503V18.2177H4.32669V18.2177ZM2.28453 4.248C3.70867 4.248 4.5958 3.30332 4.5958 2.12377C4.56887 0.918011 3.70867 0 2.31123 0C0.913572 3.72978e-05 0 0.918048 0 2.12381C0 3.30335 0.886643 4.24803 2.25764 4.24803L2.28453 4.248ZM6.58768 18.2177C6.58768 18.2177 6.64128 7.07897 6.58768 5.92569H10.6735V7.7083H10.6464C11.1836 6.86947 12.1515 5.63704 14.3553 5.63704C17.0439 5.63704 19.0591 7.39388 19.0591 11.1695V18.2177H14.974V11.6418C14.974 9.98951 14.3829 8.86199 12.9041 8.86199C11.7757 8.86199 11.1032 9.62212 10.8079 10.3569C10.6998 10.6184 10.6735 10.9858 10.6735 11.3532V18.2177H6.58768Z" fill="#0A1E4C" stroke="#AED6F1" stroke-width="0.008"/>
</svg>
