<svg width="41" height="46" viewBox="0 0 41 46" fill="none" xmlns="http://www.w3.org/2000/svg">
<path fill-rule="evenodd" clip-rule="evenodd" d="M19.4162 15L19.4791 17.5159L17.1932 15.7207L16.1818 17.008L19.5322 19.6405L19.652 24.4326L15.5617 21.9328L14.9572 17.715L13.3365 17.9473L13.7494 20.8251L11.601 19.5121L10.5095 21.4026L12.7198 22.606L10.0222 23.688L10.6313 25.2077L14.5863 23.6223L18.7964 25.9147L14.7946 28.0936L10.5264 26.6432L9.99965 28.1934L12.8394 29.1582L10.5095 30.4268L11.601 32.3172L13.8645 30.9339L13.2802 33.8755L14.8861 34.1944L15.7641 29.7729L19.652 27.3967L19.5381 31.9518L16.148 34.9229L17.227 36.1542L19.4825 34.1773L19.4162 36.8293H21.5991L21.5328 34.1773L23.7882 36.1542L24.8673 34.9229L21.4772 31.9518L21.3633 27.3967L25.2512 29.7729L26.1292 34.1944L27.735 33.8755L27.1507 30.9338L29.4143 32.3172L30.5058 30.4268L28.1759 29.1582L31.0156 28.1934L30.4889 26.6432L26.2207 28.0936L22.219 25.9147L26.429 23.6223L30.384 25.2077L30.9931 23.688L28.2944 22.6067L30.5058 21.4026L29.4143 19.5121L27.2669 20.8245L27.6787 17.9473L26.0581 17.715L25.4535 21.9328L21.3633 24.4326L21.4831 19.6404L24.8335 17.008L23.822 15.7207L21.5362 17.5171L21.5991 15H19.4162Z" fill="#0A1E4C"/>
<rect x="0.5" y="5.5" width="40" height="40" rx="4.5" stroke="#0A1E4C"/>
</svg>
