<svg width="23" height="17" viewBox="0 0 23 17" fill="none" xmlns="http://www.w3.org/2000/svg">
<path fill-rule="evenodd" clip-rule="evenodd" d="M23 11.4837C22.8965 14.1335 20.6683 16.1997 18.0182 16.1032H4.9818C2.33177 16.1997 0.103477 14.1335 0 11.4837V4.6228C0.103477 1.97305 2.33177 -0.0932282 4.9818 0.00324528H18.0182C20.6683 -0.0932282 22.8965 1.97305 23 4.6228V11.4837ZM14.6842 7.71017L10.8907 5.20438C10.1719 4.72958 9.08103 5.13556 9.08103 5.87401V11.1236C9.08103 11.8656 10.1707 12.2704 10.8907 11.7956L14.6842 9.05408C14.9299 8.91467 15.081 8.65884 15.081 8.38212C15.081 8.10553 14.9299 7.84969 14.6842 7.71017Z" fill="#0A1E4C"/>
</svg>
