<svg width="268.000000" height="47.862305" viewBox="0 0 268 47.8623" fill="none" xmlns="http://www.w3.org/2000/svg" xmlns:xlink="http://www.w3.org/1999/xlink">
	<desc>
			Created with Pixso.
	</desc>
	<defs/>
	<path id="Vector" d="M31.37 3.19L17.94 16.59L31.38 29.98L44.82 16.58L31.37 3.19Z" fill="#FFFFFF" fill-opacity="1.000000" fill-rule="nonzero"/>
	<path id="Vector" d="M64.09 0L47.45 16.57L60.88 29.97L77.52 13.39L64.09 0Z" fill="#FFFFFF" fill-opacity="1.000000" fill-rule="nonzero"/>
	<path id="Vector" d="M16.64 17.88L0 34.46L13.43 47.86L30.07 31.28L16.64 17.88Z" fill="#FFFFFF" fill-opacity="1.000000" fill-rule="nonzero"/>
	<path id="Vector" d="M46.14 17.88L32.7 31.27L46.13 44.67L59.58 31.28L46.14 17.88Z" fill="#FFFFFF" fill-opacity="1.000000" fill-rule="nonzero"/>
	<path id="Vector" d="M206.26 13.45L192.68 40.75L201.93 40.75L205.2 34.18L216.57 34.18L218.67 40.75L227.92 40.75L219.18 13.45L206.26 13.45L206.26 13.45L206.26 13.45ZM208.1 28.36L212.12 20.27L214.71 28.36L208.1 28.36L208.1 28.36Z" fill="#FFFFFF" fill-opacity="1.000000" fill-rule="nonzero"/>
	<path id="Vector" d="M254.14 13.45L248.75 30.25L245.49 13.45L231.64 13.45L230.04 40.75L238.72 40.75L239.87 21.14L243.75 40.75L252.53 40.75L258.87 21.14L257.71 40.75L266.39 40.75L268 13.45L254.14 13.45Z" fill="#FFFFFF" fill-opacity="1.000000" fill-rule="nonzero"/>
	<path id="Vector" d="M96.98 30.71L100.64 30.71C100.64 30.71 100.36 34.92 100.36 34.93C100.35 35.09 99.57 35.26 99.45 35.29C96.18 36 91.99 35.39 90.12 32.32C87.98 28.39 89.72 22.33 93.89 20.48C97.95 18.55 103.47 19.27 107.54 20.31L107.94 14.03C102.2 12.9 95.91 12.18 90.31 14.25C84.86 16.26 81.05 21.12 80.61 26.92C80.34 30.42 81.23 34.24 83.59 36.91C86.95 40.64 92.22 41.23 96.98 41.31C100.61 41.28 104.55 40.92 108.1 40.23L109 24.88L97.35 24.88L96.98 30.71Z" fill="#FFFFFF" fill-opacity="1.000000" fill-rule="nonzero"/>
	<path id="Vector" d="M198.41 13.45L173.17 13.45L172.83 19.28L181.05 19.28L179.79 40.75L188.47 40.75L189.73 19.28L198.04 19.28L198.41 13.45Z" fill="#FFFFFF" fill-opacity="1.000000" fill-rule="nonzero"/>
	<path id="Vector" d="M122.58 13.45L113.9 13.45C113.9 13.45 112.87 30.86 112.78 32.53C112.68 34.15 113.17 35.83 114.06 37.09C115.06 38.44 116.69 39.39 118.4 40.07C120.43 40.86 122.76 41.2 124.99 41.29C128.57 41.4 132.42 41.11 135.61 39.47C138.03 38.2 139.43 36.73 140.1 34.22C140.26 33.59 140.39 32.64 140.48 31.48L141.54 13.45L132.86 13.45L131.9 29.79C131.67 33.69 128.91 35.45 126.63 35.45C123.67 35.45 121.4 33.09 121.64 29.39L122.57 13.45L122.58 13.45Z" fill="#FFFFFF" fill-opacity="1.000000" fill-rule="nonzero"/>
	<path id="Vector" d="M162 13.45C165.56 13.45 170.82 15.56 170.82 20.65C170.82 24.48 168.09 28.11 164.39 29.21L170.5 40.75L161.82 40.75L153.77 25.46L159.21 25.46C160.96 25.46 162.36 24.17 162.36 22.43C162.36 20.69 160.93 19.28 159.18 19.28L154.13 19.28L152.87 40.75L144.19 40.75L145.79 13.45L162 13.45L162 13.45Z" fill="#FFFFFF" fill-opacity="1.000000" fill-rule="nonzero"/>
</svg>
