<svg width="120" height="23" viewBox="0 0 120 23" fill="none" xmlns="http://www.w3.org/2000/svg">
<path d="M14.0507 2.04492L8.03516 8.04407L14.0549 14.039L20.0704 8.03982L14.0507 2.04492Z" fill="#0A1E4C"/>
<path d="M28.699 0.613281L21.2466 8.03476L27.2621 14.0339L34.7145 6.61243L28.699 0.613281Z" fill="#0A1E4C"/>
<path d="M7.4524 8.62402L0 16.0455L6.01552 22.0447L13.4679 14.6232L7.4524 8.62402Z" fill="#0A1E4C"/>
<path d="M20.6628 8.62305L14.6431 14.6179L20.6586 20.6171L26.6783 14.6222L20.6628 8.62305Z" fill="#0A1E4C"/>
<path d="M92.3576 6.63867L86.2788 18.8628H90.4194L91.8825 15.9201H96.9728L97.9149 18.8628H102.055L98.1436 6.63867H92.3565H92.3571H92.3576ZM93.1798 13.3126L94.9804 9.69132L96.1389 13.3126H93.1792H93.1798Z" fill="#0A1E4C"/>
<path d="M113.798 6.63867L111.384 14.1618L109.924 6.63867H103.722L103.005 18.8628H106.89L107.405 10.0818L109.145 18.8628H113.077L115.912 10.08L115.397 18.8628H119.282L120 6.63867H113.798Z" fill="#0A1E4C"/>
<path d="M43.4272 14.3651H45.0632C45.0632 14.3651 44.9409 16.2534 44.9409 16.2546C44.9362 16.3287 44.5845 16.4057 44.5328 16.4187C43.0685 16.7327 41.192 16.4633 40.354 15.0861C39.3948 13.3295 40.174 10.6144 42.0417 9.78704C43.8583 8.92199 46.3334 9.2419 48.1541 9.70824L48.3317 6.89787C45.7636 6.39155 42.945 6.07105 40.4375 6.99726C37.9988 7.89464 36.2946 10.0728 36.0964 12.6709C35.9764 14.2369 36.3722 15.9464 37.4319 17.1414C38.9344 18.8127 41.2937 19.0761 43.4278 19.1114C45.0503 19.0996 46.8145 18.9373 48.4052 18.628L48.8086 11.7553H43.5925L43.4272 14.3651Z" fill="#0A1E4C"/>
<path d="M88.841 6.63867H77.5407L77.3872 9.24792H81.0685L80.5051 18.8628H84.3899L84.955 9.24792H88.6769L88.841 6.63867Z" fill="#0A1E4C"/>
<path d="M54.8871 6.63867H51.0012C51.0012 6.63867 50.5431 14.4358 50.5002 15.1827C50.4584 15.906 50.6772 16.6581 51.0765 17.2215C51.5199 17.829 52.252 18.2518 53.0177 18.5576C53.928 18.9134 54.9701 19.0633 55.9698 19.1062C57.5723 19.1521 59.2976 19.0222 60.7225 18.2912C61.8051 17.7184 62.4338 17.0621 62.7325 15.9401C62.8049 15.6549 62.8631 15.2321 62.9042 14.7122L63.3782 6.63926H59.4923L59.0606 13.9554C58.9607 15.7025 57.7246 16.4888 56.7043 16.4888C55.377 16.4888 54.3608 15.4302 54.4667 13.7743L54.8866 6.63926L54.8871 6.63867Z" fill="#0A1E4C"/>
<path d="M72.5398 6.63867C74.1317 6.63867 76.4875 7.58252 76.4875 9.86009C76.4875 11.5772 75.2649 13.2027 73.6077 13.6943L76.3446 18.8628H72.4586L68.8526 12.0142H71.2907C72.0758 12.0142 72.6992 11.4367 72.6992 10.6581C72.6992 9.8795 72.0617 9.24851 71.276 9.24851H69.0143L68.4504 18.8628H64.5645L65.2819 6.63867H72.5386H72.5398Z" fill="#0A1E4C"/>
</svg>
