<svg width="15.000000" height="15.000000" viewBox="0 0 15 15" fill="none" xmlns="http://www.w3.org/2000/svg" xmlns:xlink="http://www.w3.org/1999/xlink">
	<defs/>
	<path id="+" d="M5.01 14L5.01 11C5.01 10.45 4.57 10 4.01 10L1 10C0.44 10 0 9.56 0 9L0 6.01C0 5.46 0.44 5.01 1 5.01L3.99 5.01C4.54 5.01 4.99 4.57 4.99 4.01L4.99 1C4.99 0.44 5.43 0 5.99 0L8.98 0C9.53 0 9.98 0.44 9.98 1L9.98 4.01C9.98 4.57 10.42 5.01 10.98 5.01L14 5.01C14.55 5.01 15 5.46 15 6.01L15 9C15 9.56 14.55 10 14 10L11 10C10.45 10 10 10.45 10 11L10 14C10 14.55 9.56 15 9 15L6.01 15C5.46 15 5.01 14.55 5.01 14Z" fill="#002ADB" fill-opacity="1.000000" fill-rule="nonzero"/>
</svg>
