<svg width="20.000000" height="20.000000" viewBox="0 0 20 20" fill="none" xmlns="http://www.w3.org/2000/svg" xmlns:xlink="http://www.w3.org/1999/xlink">
	<desc>
			Created with Pixso.
	</desc>
	<defs/>
	<path id="+" d="M6.69 19L6.69 14.34C6.69 13.79 6.24 13.34 5.69 13.34L1 13.34C0.44 13.34 0 12.89 0 12.34L0 7.69C0 7.14 0.44 6.69 1 6.69L5.65 6.69C6.2 6.69 6.65 6.24 6.65 5.69L6.65 1C6.65 0.44 7.1 0 7.65 0L12.3 0C12.85 0 13.3 0.44 13.3 1L13.3 5.69C13.3 6.24 13.75 6.69 14.3 6.69L19 6.69C19.55 6.69 20 7.14 20 7.69L20 12.34C20 12.89 19.55 13.34 19 13.34L14.34 13.34C13.79 13.34 13.34 13.79 13.34 14.34L13.34 19C13.34 19.55 12.89 20 12.34 20L7.69 20C7.14 20 6.69 19.55 6.69 19Z" fill="#FFFFFF" fill-opacity="1.000000" fill-rule="nonzero"/>
</svg>
